<svg viewBox="0 0 19.6 20.97" xmlns="http://www.w3.org/2000/svg"><g fill="#e4e6eb"><path d="m4.18 18.6a2.85 2.85 0 0 0 5.62-1c-.87.23-1.84.45-2.9.63s-1.9.3-2.72.37z"/><path d="m19.6 12.24a2.71 2.71 0 0 1 -1 1.73c-1.5 1.36-7 2.87-8 3.16a33.9 33.9 0 0 1 -8.24 1.22 2.52 2.52 0 0 1 -.8-.16 2.78 2.78 0 0 1 -1.25-1 2.37 2.37 0 0 1 -.12-.36 3.5 3.5 0 0 1 .64-3.3l.07-.07a3.31 3.31 0 0 0 .47-.68 2.08 2.08 0 0 0 .14-.53 2.55 2.55 0 0 0 0-.82 12.53 12.53 0 0 0 -.47-2.44 6.11 6.11 0 0 1 -.11-3 7.13 7.13 0 0 1 4.01-5.26 5.73 5.73 0 0 1 2.59-.73 7 7 0 0 1 2 .13c.24.06.47.12.68.19a7 7 0 0 1 3.4 2.28 10.37 10.37 0 0 1 1.35 2.71c.61 1.48.62 2.07 1.33 2.81l.11.11a3 3 0 0 0 .32.25c.37.26.56.38.73.48a6.22 6.22 0 0 1 1.1.86 3.36 3.36 0 0 1 1 1.92 2.33 2.33 0 0 1 .05.5z"/></g></svg>