<svg viewBox="0 0 30.91 25.59" xmlns="http://www.w3.org/2000/svg"><g fill="#e4e6eb"><path d="m29.69 21.69-4.61-3a.78.78 0 0 1 -.35-.66v-10.48a.81.81 0 0 1 .36-.66l4.6-3a.78.78 0 0 1 1.22.66v16.45a.78.78 0 0 1 -1.22.69z"/><path d="m16.74 0h-11.16a5.58 5.58 0 0 0 -5.58 5.58v14.42a5.58 5.58 0 0 0 5.58 5.58h11.16a5.58 5.58 0 0 0 5.59-5.58v-14.42a5.58 5.58 0 0 0 -5.59-5.58zm-5.24 18.16a9 9 0 0 1 -8.41-5.37 9 9 0 0 1 8.38-5.36 9 9 0 0 1 8.41 5.36 9 9 0 0 1 -8.38 5.37z"/><circle cx="11.49" cy="12.68" r="3.52"/></g></svg>