<svg viewBox="0 0 39.22 36.52" xmlns="http://www.w3.org/2000/svg"><g fill="#4a98f1"><path d="m33.57 4h-4.78l-3.24-3.61a1.16 1.16 0 0 0 -.87-.39l-10.51.11a1.14 1.14 0 0 0 -.91.45l-2.63 3.44h-5a5.65 5.65 0 0 0 -5.63 5.6v21.28a5.65 5.65 0 0 0 5.65 5.64h27.92a5.65 5.65 0 0 0 5.65-5.64v-21.28a5.65 5.65 0 0 0 -5.65-5.6zm-14 26.48a11.21 11.21 0 1 1 11.25-11.26 11.21 11.21 0 0 1 -11.21 11.21zm14-18.65a1.89 1.89 0 1 1 1.96-1.93 1.88 1.88 0 0 1 -1.89 1.88z"/><circle cx="19.61" cy="19.43" r="8.77"/></g></svg>