<svg viewBox="0 0 40.55 40.55" xmlns="http://www.w3.org/2000/svg"><path d="m30 0h-19.49a10.52 10.52 0 0 0 -10.51 10.51v19.49a10.52 10.52 0 0 0 10.51 10.55h19.49a10.52 10.52 0 0 0 10.55-10.55v-19.49a10.52 10.52 0 0 0 -10.55-10.51zm-21.19 24.47a3 3 0 0 0 2.59 1.18 5.27 5.27 0 0 0 .95-.07 3.42 3.42 0 0 0 .7-.17 2.15 2.15 0 0 0 .48-.24 1.42 1.42 0 0 0 .32-.25v-2.54h-2.77v-2.25h5.81v5.87a4.38 4.38 0 0 1 -.72.68 5.44 5.44 0 0 1 -1.14.67 9.52 9.52 0 0 1 -1.63.51 10 10 0 0 1 -2.16.21 7.1 7.1 0 0 1 -2.62-.47 5.58 5.58 0 0 1 -2-1.39 6.34 6.34 0 0 1 -1.33-2.21 9.49 9.49 0 0 1 -.46-3v-.87a9.84 9.84 0 0 1 .44-3 6.44 6.44 0 0 1 1.25-2.25 5.28 5.28 0 0 1 2-1.39 6.5 6.5 0 0 1 2.48-.58 7.72 7.72 0 0 1 2.5.36 4.91 4.91 0 0 1 1.75 1 4.72 4.72 0 0 1 1.11 1.56 6.86 6.86 0 0 1 .51 2h-3a4.13 4.13 0 0 0 -.29-1 2.18 2.18 0 0 0 -.52-.77 2.3 2.3 0 0 0 -.83-.5 3.7 3.7 0 0 0 -1.17-.17 2.69 2.69 0 0 0 -2.38 1.18 6.24 6.24 0 0 0 -.81 3.51v.92a5.86 5.86 0 0 0 .94 3.47zm13.79 3.43h-3.05v-14.78h3.05zm12.45-12.32h-6.58v3.82h5.85v2.46h-5.85v6h-3v-14.74h9.63z" fill="#01bd99" fill-rule="evenodd"/></svg>