<svg viewBox="0 0 39.22 32.47" xmlns="http://www.w3.org/2000/svg"><g fill="#f52444"><path d="m37.67 27.52-5.84-3.85a1 1 0 0 1 -.45-.84v-13.25a1 1 0 0 1 .45-.83l5.84-3.82a1 1 0 0 1 1.55.84v20.92a1 1 0 0 1 -1.55.83z"/><path d="m21.24 0h-14.16a7.08 7.08 0 0 0 -7.08 7.08v18.3a7.08 7.08 0 0 0 7.08 7.09h14.16a7.08 7.08 0 0 0 7.09-7.09v-18.3a7.08 7.08 0 0 0 -7.09-7.08zm-6.65 23a11.39 11.39 0 0 1 -10.67-6.77 11.38 11.38 0 0 1 10.63-6.81 11.37 11.37 0 0 1 10.67 6.81 11.38 11.38 0 0 1 -10.63 6.77z"/><circle cx="14.57" cy="16.09" r="4.47"/></g></svg>