<svg viewBox="0 0 41.06 42.52" xmlns="http://www.w3.org/2000/svg"><path d="m39.83 19.57c-1.7-.68-3.43.4-4.71 1.8a3.44 3.44 0 0 1 -.87.38l-.15.14s-.07 0-.1 0a.15.15 0 0 1 -.07-.15v-.05s.12-1.77.1-1.77c.06-.34.13-.67.19-1 1-2.92 1.76-5.92 2.86-8.8.74-1.95 1.47-4.12.61-6.06-.95-2.14-2.69-.17-3.29 1.23a23.73 23.73 0 0 0 -1.06 4.42c-.32 1.68-.53 3.54-1.49 5-.38-.48-.17-1.81-.13-2.41.06-.85.13-1.7.24-2.55.19-1.5.4-3 .5-4.52s.64-4.61-1.14-5.16-2.42 2.37-2.53 3.74c-.24 3 .09 6.67-1.25 9.44h-.39c-.55-1-.45-4.87-.45-5.45a13.33 13.33 0 0 0 -1.19-6.14c-.51-.9-1.73-.74-2.42-.28s-.89 1.86-.94 2.72a15.81 15.81 0 0 0 .48 4.4 21.42 21.42 0 0 1 .72 4.07l.14-.15c.83-.8 2.36-.33 3.09.31s.57 2.14.39 3a15.59 15.59 0 0 1 -1.87 4.46c-.89 1.58-2 3.13-2.26 4.93a4.24 4.24 0 0 1 -1 .82s0-.05 0-.08c.1-1.88 1.2-3.47 2.07-5.09a14.69 14.69 0 0 0 1.67-4.18c.17-.84.38-2.19-.35-2.86a2.69 2.69 0 0 0 -1.9-.68 7 7 0 0 1 -.09.77.14.14 0 0 0 0 .09 2.53 2.53 0 0 1 -.5-.68c-.47-.78-1-1.93-1.08-2.06-.63-1.22-1.3-2.39-2-3.52-.44-.67-2.32-3.1-3.14-1.25a4.68 4.68 0 0 0 -.11 3 1.63 1.63 0 0 1 .33 0c2.4-.16 2.33 3 2.08 4.44.15.22.29.44.42.67a5.75 5.75 0 0 1 1 2.43v.3s0 .26 0 .39a13.7 13.7 0 0 0 -1 4.34 11.85 11.85 0 0 0 0 2 8.65 8.65 0 0 0 1.2 3.52 10.52 10.52 0 0 0 4 3.36 5.81 5.81 0 0 0 -.09-.58 3.84 3.84 0 0 1 .16-.67 5.83 5.83 0 0 1 1.7-2.15c.9-.84 1.95-1.5 2.85-2.32 1.25-1.13 2.64-3.13 2.24-4.96a1 1 0 0 0 -1.06-.87c1.17-.67 2.75-1.23 3.09.24.44 1.93-1.11 4-2.53 5.27-1 .88-2.18 1.59-3.18 2.48a6.22 6.22 0 0 0 -1.89 2.29 3.52 3.52 0 0 0 -.18.71 10 10 0 0 1 .15 1.1 13.71 13.71 0 0 0 4.06.81 1.29 1.29 0 0 1 .44 0 3.5 3.5 0 0 0 1.21-.34 7.47 7.47 0 0 0 2.64-2.1c.93-1.14 1.52-2.51 2.39-3.7s2.33-1.73 3.5-2.72c1.36-1.11 1.66-3.06-.11-3.77zm-15.56-17.95a1 1 0 0 1 .26.11 1 1 0 0 0 -.26-.11zm.93 11.09a1.63 1.63 0 0 1 .3.07 1 1 0 0 0 -.3-.07zm-8.41-2.05a7.08 7.08 0 0 0 .52 1c.32.53.69 1 1.05 1.54-.05-1.2-.36-2.39-1.57-2.54z" fill="#9f6cf9"/><path d="m31.3 20.17a1 1 0 0 0 -1.06-.87 10.2 10.2 0 0 0 -1.18.79q-1.85 1.5-3.52 3.16a18.74 18.74 0 0 1 -2.77 2.49.37.37 0 0 0 0-.09 4.07 4.07 0 0 1 .05-.49 4.24 4.24 0 0 1 -1 .82s0-.05 0-.08c.1-1.88 1.2-3.47 2.07-5.09a14.69 14.69 0 0 0 1.67-4.18c.17-.84.38-2.19-.35-2.86a2.69 2.69 0 0 0 -1.9-.68 1.5 1.5 0 0 0 -.59.18v.05a14.61 14.61 0 0 0 -2.45 5.2c-.1.37-.52 2-1 3.47a6.15 6.15 0 0 1 -1.08 2.08h-.18a1.51 1.51 0 0 1 -.29.38c-.14 0-.28 0-.43-.06-.79-3 .52-6.48 1-9.49a8.58 8.58 0 0 0 .11-1.62c-.05-1.19-.4-2.42-1.57-2.57a2.61 2.61 0 0 0 -.4 0c-2.13.14-2.29 3.16-2.59 4.74s-.43 3-.61 4.51c-.1.85-.23 1.7-.38 2.54-.12.59-.23 1.93-.77 2.32 0-.12-.1-.24-.14-.36s0 0 0 0c-.79-1.71-.51-3.69-.42-5.51a24.7 24.7 0 0 0 0-4.55l-3.22 13c0 .32.07.65.1 1s0 .68-.05 1c0 0-.32 1.75-.35 1.75a.14.14 0 0 1 -.13.12.08.08 0 0 1 -.1 0l-.13-.17-.32-.1a.78.78 0 0 1 -.06.22v.05a.15.15 0 0 1 -.14.13s-.08 0-.11 0l-.14-.18a4.83 4.83 0 0 1 -1-.61 6.84 6.84 0 0 0 -3.66-2.9c-.12 0-.23 0-.34 0-2.16.29-2.33 2.29-1.12 3.69 1.05 1.23 2.45 1.93 3.19 3.44.66 1.35 1 2.82 1.72 4.14a7.92 7.92 0 0 0 2.4 2.65 4.55 4.55 0 0 0 1.27.59 2.07 2.07 0 0 1 .49.07c.49.09 6.89 1.21 11.61-2.5a8.59 8.59 0 0 0 2.25-3.17 11.94 11.94 0 0 0 .7-5.79 5.81 5.81 0 0 0 -.09-.58 3.84 3.84 0 0 1 .16-.67 5.83 5.83 0 0 1 1.7-2.15c.9-.84 1.95-1.5 2.85-2.32 1.31-1.11 2.7-3.11 2.3-4.94z" fill="#fff"/><path d="m31.3 20.17a1 1 0 0 0 -1.06-.87 5.93 5.93 0 0 0 -2.76 1.38c-1.11.94-2.16 1.93-3.17 3-.09.1-.81.88-1.47 1.51a4.24 4.24 0 0 1 -1 .82s0-.05 0-.08c.1-1.88 1.2-3.47 2.07-5.09a14.69 14.69 0 0 0 1.67-4.18c.17-.84.38-2.19-.35-2.86a2.69 2.69 0 0 0 -1.9-.68 1.5 1.5 0 0 0 -.59.18h-.05l-.21.18a10.69 10.69 0 0 0 -2.3 3.76 17.62 17.62 0 0 0 -.62 2 23.75 23.75 0 0 1 -1.62 4.76 1.51 1.51 0 0 1 -.29.38c-.14 0-.28 0-.43-.06-.79-3 .52-6.48 1-9.49a8.58 8.58 0 0 0 .11-1.62c-.05-1.19-.4-2.42-1.57-2.57a2.61 2.61 0 0 0 -.4 0c-2.13.14-2.29 3.16-2.59 4.74s-.43 3-.61 4.51c-.1.85-.23 1.7-.38 2.54-.12.59-.23 1.93-.77 2.32 0-.12-.1-.24-.14-.36a12.74 12.74 0 0 1 -.24-4.81 21.51 21.51 0 0 0 -.02-4.58 4.92 4.92 0 0 0 -.18-.68c-.51-1.32-1.79-2.83-3.17-1.22s-1.2 4-.88 6c.44 2.74.55 5.5.83 8.25 0 .32.07.65.1 1s0 .68-.05 1c0 0-.32 1.75-.35 1.75a.14.14 0 0 1 -.13.12.08.08 0 0 1 -.1 0l-.13-.17-.23-.05a3.86 3.86 0 0 1 -.66-.45c-1-1.56-2.54-2.94-4.45-2.85-.12 0-.23 0-.34 0-2.16.3-2.33 2.3-1.12 3.7 1.05 1.23 2.45 1.93 3.19 3.44.66 1.35 1 2.82 1.72 4.14a7.92 7.92 0 0 0 2.4 2.65 4.55 4.55 0 0 0 1.27.59 2.07 2.07 0 0 1 .49.07c.49.09 6.89 1.21 11.61-2.5a8.59 8.59 0 0 0 2.25-3.17 11.94 11.94 0 0 0 .7-5.79 5.81 5.81 0 0 0 -.09-.58 3.84 3.84 0 0 1 .16-.67 5.83 5.83 0 0 1 1.7-2.15c.9-.84 1.95-1.5 2.85-2.32 1.31-1.11 2.7-3.11 2.3-4.94zm-7-6.35a1.34 1.34 0 0 0 -.27-.07.83.83 0 0 1 .25.07zm-.42-.08a1.65 1.65 0 0 0 -.31 0 1.65 1.65 0 0 1 .29 0z" fill="#9f6cf9"/></svg>