<svg viewBox="0 0 31.07 31.29" xmlns="http://www.w3.org/2000/svg"><g fill="#e4e6eb"><path d="m28.16 13.72a1.35 1.35 0 0 0 2.22-.46 9.68 9.68 0 0 0 -12.57-12.58 1.37 1.37 0 0 0 -.47 2.23z"/><path d="m2.83 30.52a.26.26 0 0 1 -.07.44 2 2 0 0 1 -2.12-.54 2.07 2.07 0 0 1 -.54-2.11.26.26 0 0 1 .44-.07z"/><path d="m26.45 16.24-11.63-11.62a1.29 1.29 0 0 0 -2.19 1.12l.7 4.34-12.98 15.15a1.27 1.27 0 0 0 .06 1.77l3.94 3.94a1.3 1.3 0 0 0 1.76.06l15.05-13.24 4.17.68a1.3 1.3 0 0 0 1.12-2.2zm-12.87 3.76a1.8 1.8 0 1 1 -2.58-2.52l2.83-2.83a1.8 1.8 0 0 1 2.55 2.54z"/></g></svg>