<svg viewBox="0 0 36.15 24.47" xmlns="http://www.w3.org/2000/svg"><g fill="#50cebb"><path d="m5.72 16.5-2.51 7.58h-3.21l8.18-24.08h3.75l8.22 24.08h-3.33l-2.57-7.58zm7.89-2.43-2.36-6.93c-.53-1.57-.89-3-1.25-4.39h-.07c-.36 1.43-.75 2.89-1.21 4.36l-2.36 7z"/><path d="m33.29 24.08-.29-2.18h-.11a6.45 6.45 0 0 1 -5.28 2.57 4.93 4.93 0 0 1 -5.29-5c0-4.18 3.72-6.46 10.4-6.43v-.35c0-1.43-.4-4-3.93-4a8.64 8.64 0 0 0 -4.46 1.31l-.72-2.07a10.72 10.72 0 0 1 5.68-1.54c5.29 0 6.57 3.61 6.57 7.08v6.46a23.83 23.83 0 0 0 .29 4.15zm-.46-8.83c-3.43-.07-7.33.54-7.33 3.9a2.79 2.79 0 0 0 3 3 4.3 4.3 0 0 0 4.18-2.9 3.15 3.15 0 0 0 .18-1z"/></g></svg>