<svg viewBox="0 0 29.97 20.92" xmlns="http://www.w3.org/2000/svg"><path d="m29 2.84-3.5 2.55a.57.57 0 0 0 -.23.35v-2.32a3.42 3.42 0 0 0 -3.38-3.42h-18.48a3.42 3.42 0 0 0 -3.41 3.42v14.09a3.41 3.41 0 0 0 3.41 3.41h18.48a3.42 3.42 0 0 0 3.42-3.41v-2.51a.64.64 0 0 0 .23.35l3.46 2.56a.6.6 0 0 0 .94-.55v-13.96a.6.6 0 0 0 -.94-.56zm-10 7.84a1.18 1.18 0 0 1 -1.19 1.18h-3.08v3.14a1.18 1.18 0 0 1 -1.19 1.18h-.44a1.18 1.18 0 0 1 -1.18-1.18v-3.14h-3.17a1.18 1.18 0 0 1 -1.18-1.18v-.44a1.18 1.18 0 0 1 1.18-1.18h3.17v-3.17a1.18 1.18 0 0 1 1.18-1.18h.44a1.18 1.18 0 0 1 1.19 1.18v3.17h3.16a1.18 1.18 0 0 1 1.19 1.18z" fill="#e4e6eb"/></svg>