<svg viewBox="0 0 30.48 19.08" xmlns="http://www.w3.org/2000/svg"><g fill="#040504"><ellipse cx="15.31" cy="4.78" rx="4.47" ry="4.78"/><path d="m21.71 19.08a1 1 0 0 0 1.06-1 7.24 7.24 0 0 0 -7.45-7 7.24 7.24 0 0 0 -7.45 7 1 1 0 0 0 1.06 1z"/><ellipse cx="24.81" cy="6.6" rx="3.16" ry="3.5"/><path d="m25.14 10.74a5.46 5.46 0 0 0 -4 1.43 6.79 6.79 0 0 1 2.67 5.4v.17h5.67a1 1 0 0 0 1-1.06c0-.15 0-.3 0-.46a5.83 5.83 0 0 0 -5.34-5.48z"/><ellipse cx="5.63" cy="6.84" rx="3.14" ry="3.5"/><path d="m5.3 11a5.47 5.47 0 0 1 4 1.43 6.82 6.82 0 0 0 -2.66 5.41v.16h-5.64a1 1 0 0 1 -1-1.06c0-.15 0-.3 0-.45a5.81 5.81 0 0 1 5.3-5.49z"/></g></svg>