<svg viewBox="0 0 40 41.26" xmlns="http://www.w3.org/2000/svg"><g fill="#40b25c"><path d="m37.24 3.18-23.24-3.18a3.17 3.17 0 0 0 -3.58 2.73l-4.27 31.77a3.19 3.19 0 0 0 2.73 3.58l23.2 3.15a3.2 3.2 0 0 0 3.59-2.73l4.33-31.74a3.17 3.17 0 0 0 -2.76-3.58zm-.41 16.82-2.42-2.72a2.67 2.67 0 0 0 -3.81-.28l-8.35 7.67-4.89-4.87a3.08 3.08 0 0 0 -4.43.05l-4.38 4.53 2.88-21.23a2.14 2.14 0 0 1 2.4-1.83l23 3.12a2.13 2.13 0 0 1 1.83 2.4z"/><ellipse cx="18.51" cy="9.32" rx="3.34" ry="3.22" transform="matrix(.16986552 -.98546725 .98546725 .16986552 6.18 25.97)"/><path d="m5.14 35 4.3-31.72a3.43 3.43 0 0 1 .16-.65l-5.72.13a4 4 0 0 0 -3.88 4.06l.64 27.93a4 4 0 0 0 4.06 3.87l3-.06a3.17 3.17 0 0 1 -2.56-3.56z"/></g></svg>