<svg viewBox="0 0 31.25 30.84" xmlns="http://www.w3.org/2000/svg"><path d="m28.86 13.72-2.2 2.21h-.05l-2.2 2.21a7.72 7.72 0 0 1 -10.89.27l-.72-.72a7.22 7.22 0 0 1 -1.8-3.16 3.81 3.81 0 0 1 3.46-.6 3.89 3.89 0 0 0 .87 1.32l.67.75a4.28 4.28 0 0 0 6.05-.15l2.2-2.21h.05l2.2-2.21a4.36 4.36 0 0 0 1-4.83c0-.08-.07-.16-.11-.23a.64.64 0 0 0 -.08-.14l-.14-.23-.17-.22a.83.83 0 0 0 -.11-.15 4.12 4.12 0 0 0 -.28-.31l-.72-.72a2.7 2.7 0 0 0 -.31-.28l-.15-.11-.17-.13-.17-.08-.09-.12-.23-.11a4.38 4.38 0 0 0 -4.84 1l-2.25 2.23h-.05l-2.2 2.2-.17.18a8.3 8.3 0 0 0 -4 .1 8.17 8.17 0 0 1 1.77-2.64l2.21-2.2 2.21-2.2a7.92 7.92 0 0 1 8.08-2h.13l.27.1.14.06.27.12.12.06.37.2a3.13 3.13 0 0 1 .36.22l.12.08.24.17.12.09.24.2a.81.81 0 0 1 .1.09 3 3 0 0 1 .32.3l.72.72a3 3 0 0 1 .3.32l.09.1.19.24.1.12.17.24a1 1 0 0 0 .08.11c.07.12.15.24.22.37l.2.37.06.12.12.27a.78.78 0 0 1 .05.14c0 .09.08.18.11.27v.13a7.77 7.77 0 0 1 -.23 5.45 2 2 0 0 1 -.1.21.5.5 0 0 1 -.05.13l-.21.41-.09.15c-.05.1-.12.2-.18.3l-.08.13c-.09.14-.18.27-.28.4l-.07.09a4 4 0 0 1 -.26.32l-.09.11zm-12.59 7.47-.18.18-2.27 2.27-.05.05-2.27 2.31a4.56 4.56 0 0 1 -4.83 1.11 3.87 3.87 0 0 1 -1-.59l-.14-.13-.16-.14-.72-.72-.14-.16-.13-.14a3.87 3.87 0 0 1 -.59-1 4.52 4.52 0 0 1 .94-4.64l.17-.18 2.27-2.27 2.27-2.28a4.36 4.36 0 0 1 6.15-.24l.72.72a3.94 3.94 0 0 1 .87 1.32 3.88 3.88 0 0 0 3.52-.66 7.05 7.05 0 0 0 -1.83-3.22l-.69-.78c-2.93-3-7.89-2.78-11.06.4l-2.28 2.27-2.32 2.33a8 8 0 0 0 -1.35 10l.24.35.05.06.24.29.05.07c.1.11.2.22.31.32l.72.72c.1.11.21.21.32.31l.07.05.29.24.06.05.35.24a8 8 0 0 0 10-1.35l2.27-2.27.05-.05 2.27-2.27a8.7 8.7 0 0 0 1.83-2.76 8.57 8.57 0 0 1 -4.02.19z" fill="#e4e6eb"/></svg>